<svg width="32" height="27" viewBox="0 0 32 27" fill="none" xmlns="http://www.w3.org/2000/svg">
<rect y="0.209068" width="32" height="26.7465" rx="5" fill="#FFBF00"/>
<path d="M28.3104 6.8412L26.0594 8.72263C25.8299 8.91445 25.4588 8.91445 25.2293 8.72263L19.8094 4.19251C19.5799 4.00069 19.5799 3.69052 19.8094 3.49871L22.0604 1.61728C22.9735 0.854096 24.4578 0.854096 25.3758 1.61728L28.3104 4.07007C29.2283 4.83326 29.2283 6.07394 28.3104 6.8412ZM17.8758 5.11486L6.38645 14.718C5.52315 15.4395 4.92846 16.4312 4.69853 17.5326L4.01837 20.7907C3.87677 21.46 4.57501 22.0396 5.3758 21.9253L9.91066 21.2608C10.8246 21.1269 11.6836 20.7424 12.3923 20.15L24.1307 10.3388C24.3602 10.147 24.3602 9.83679 24.1307 9.64498L18.7108 5.11486C18.4764 4.92304 18.1053 4.92304 17.8758 5.11486ZM10.0584 14.9138C9.78986 14.6893 9.78986 14.3302 10.0584 14.1057L17.5779 7.82069C17.8465 7.59622 18.2762 7.59622 18.5447 7.82069C18.8133 8.04515 18.8133 8.4043 18.5447 8.62876L11.0252 14.9138C10.7567 15.1383 10.327 15.1383 10.0584 14.9138ZM8.29572 17.3659C8.29572 17.9069 8.73425 18.3461 9.2752 18.3461H9.84479C10.2837 18.3461 10.6395 18.7019 10.6395 19.1408C10.6395 19.5352 10.3502 19.8699 9.95993 19.9271L8.32648 20.1662C7.7943 20.2442 7.25413 20.0915 6.84144 19.7466C6.306 19.2991 6.06094 18.5928 6.20409 17.9098L6.3603 17.1646C6.45525 16.7115 6.85475 16.3871 7.31761 16.3871C7.8578 16.3871 8.29572 16.8257 8.29572 17.3659Z" fill="white"/>
</svg>
