<svg width="32" height="27" viewBox="0 0 32 27" fill="none" xmlns="http://www.w3.org/2000/svg">
<rect y="0.209068" width="32" height="26.7465" rx="5" fill="#DE2727"/>
<path d="M23.4531 5.21875H18.8828L18.5248 4.50654C18.449 4.35428 18.3321 4.2262 18.1875 4.13671C18.0428 4.04722 17.8761 3.99988 17.706 4H13.3527C13.183 3.99935 13.0165 4.04652 12.8724 4.1361C12.7282 4.22569 12.6123 4.35407 12.5377 4.50654L12.1797 5.21875H7.60938C7.44776 5.21875 7.29276 5.28295 7.17848 5.39723C7.0642 5.51151 7 5.66651 7 5.82812V7.04687C7 7.20849 7.0642 7.36349 7.17848 7.47777C7.29276 7.59205 7.44776 7.65625 7.60938 7.65625H23.4531C23.6147 7.65625 23.7697 7.59205 23.884 7.47777C23.9983 7.36349 24.0625 7.20849 24.0625 7.04687V5.82812C24.0625 5.66651 23.9983 5.51151 23.884 5.39723C23.7697 5.28295 23.6147 5.21875 23.4531 5.21875ZM9.02617 21.7861C9.05524 22.2503 9.26008 22.6859 9.59901 23.0043C9.93793 23.3227 10.3855 23.4999 10.8505 23.5H20.212C20.677 23.4999 21.1246 23.3227 21.4635 23.0043C21.8024 22.6859 22.0073 22.2503 22.0363 21.7861L22.8438 8.875H8.21875L9.02617 21.7861Z" fill="white"/>
</svg>
