<svg width="32" height="27" viewBox="0 0 32 27" fill="none" xmlns="http://www.w3.org/2000/svg">
<rect y="0.209068" width="32" height="26.7465" rx="5" fill="#0000FF"/>
<path d="M28.8489 12.4954C26.4952 8.65695 21.8355 6.05986 16.5 6.05986C11.1645 6.05986 6.50345 8.65876 4.15102 12.4958C4.05173 12.66 4 12.8413 4 13.0253C4 13.2092 4.05173 13.3906 4.15102 13.5547C6.50475 17.3932 11.1645 19.9903 16.5 19.9903C21.8355 19.9903 26.4965 17.3914 28.8489 13.5544C28.9482 13.3902 29 13.2089 29 13.0249C29 12.841 28.9482 12.6596 28.8489 12.4954ZM16.5 18.249C15.2638 18.249 14.0555 17.9426 13.0277 17.3686C11.9999 16.7946 11.1988 15.9787 10.7257 15.0242C10.2527 14.0697 10.1289 13.0193 10.3701 12.006C10.6112 10.9926 11.2065 10.0618 12.0806 9.33122C12.9546 8.60064 14.0683 8.10311 15.2807 7.90154C16.493 7.69998 17.7497 7.80343 18.8917 8.19882C20.0338 8.5942 21.0099 9.26376 21.6967 10.1228C22.3834 10.9819 22.75 11.9919 22.75 13.0251C22.7504 13.7112 22.589 14.3906 22.275 15.0246C21.9611 15.6585 21.5007 16.2346 20.9203 16.7197C20.3398 17.2049 19.6507 17.5896 18.8922 17.852C18.1338 18.1145 17.3209 18.2493 16.5 18.249ZM16.5 9.54248C15.9956 9.54837 15.7983 10.184 15.8054 10.6883C15.8061 10.7387 15.8042 10.7892 15.7996 10.8397C15.7621 11.2537 15.5484 11.6427 15.1972 11.9362C14.846 12.2298 14.3806 12.4084 13.8854 12.4397C13.1485 12.4863 12.2678 12.8116 12.3996 13.5381C12.4424 13.774 12.5144 14.0068 12.6154 14.2328C12.9196 14.9137 13.4717 15.4977 14.1938 15.9026C14.916 16.3075 15.7719 16.513 16.641 16.49C17.5102 16.4671 18.3489 16.2169 19.039 15.7747C19.7291 15.3324 20.236 14.7205 20.4882 14.0249C20.7404 13.3293 20.7253 12.5851 20.445 11.8971C20.1647 11.209 19.6333 10.6118 18.9256 10.1894C18.2179 9.76703 17.3696 9.54076 16.5 9.54248Z" fill="white"/>
</svg>
